# xmcd
#
# Track frame offsets: 
#        150
#        20058
#        33349
#        49154
#        68707
#        83629
#        103157
#        126650
#        145191
#        164171
#        177832
#        194401
#        211357
#        227293
#        250798
#        267694
#        281588
#        295677
#
# Disc length: 4151 seconds
#
# Revision: 0
# Processed by: cddbd v1.5.2PL0 Copyright (c) Steve Scherf et al.
# Submitted via: ExactAudioCopy v0.99pb5
#
DISCID=13103512
DTITLE=Rosanne Cash - The Essential Rosanne Cash - Disc 2 of 2
DYEAR=2011
DGENRE=Country
TTITLE0=The Real Me
TTITLE1=On the Surface
TTITLE2=What We Really Want
TTITLE3=I Want a Cure
TTITLE4=Mirror Image
TTITLE5=The Wheel
TTITLE6=Seventh Avenue
TTITLE7=Sleeping in Paris
TTITLE8=A Lover Is Forever (live)
TTITLE9=Western Wall
TTITLE10=September When It Comes (featuring Johnny Cash)
TTITLE11=Black Cadillac
TTITLE12=House on the Lake
TTITLE13=The World Unseen
TTITLE14=The Good Intent
TTITLE15=500 Miles
TTITLE16=Sea of Heartbreak (featuring Bruce Springsteen)
TTITLE17=Sweet Memories (featuring Chris Thile)
EXTD=
EXTT0=
EXTT1=
EXTT2=
EXTT3=
EXTT4=
EXTT5=
EXTT6=
EXTT7=
EXTT8=
EXTT9=
EXTT10=
EXTT11=
EXTT12=
EXTT13=
EXTT14=
EXTT15=
EXTT16=
EXTT17=
PLAYORDER=
